<svg data-v-fde0c5aa="" xmlns="http://www.w3.org/2000/svg" viewBox="0 0 300 300" class="iconLeft"><!----><defs data-v-fde0c5aa=""><!----></defs><rect data-v-fde0c5aa="" fill="#00acff" x="0" y="0" width="70px" height="81px" class="logo-background-square"></rect><defs data-v-fde0c5aa=""><!----></defs><g data-v-fde0c5aa="" id="26d0f776-23b0-4f10-a60e-8d09a7f2b786" fill="#ffffff" transform="matrix(1.656129623933403,0,0,1.656129623933403,79.1009520645686,135.34325298613024)"><path d="M3.53 8.92C5.25 9.46 5.85 10.05 5.85 11.44C5.85 13.19 5.07 13.71 3.61 13.71C2.28 13.71 1.47 13.06 1.43 11.79L0.74 11.79C0.76 13.37 1.81 14.35 3.60 14.35C5.40 14.35 6.57 13.62 6.57 11.42C6.57 9.80 5.74 8.92 3.74 8.32C2.23 7.85 1.64 7.34 1.64 6.02C1.64 4.56 2.39 3.99 3.72 3.99C4.82 3.99 5.77 4.48 5.87 5.80L6.57 5.80C6.44 3.93 5.10 3.35 3.72 3.35C1.92 3.35 0.94 4.27 0.94 6.03C0.94 7.71 1.81 8.39 3.53 8.92ZM13.31 14.18L13.31 8.43C13.31 6.55 12.45 5.81 10.88 5.81C9.13 5.81 8.37 6.65 8.37 8.37L9.00 8.37C9.00 6.87 9.70 6.43 10.86 6.43C12.11 6.43 12.64 7.03 12.64 8.43L12.64 9.80C12.21 9.73 11.56 9.67 11.16 9.67C9.03 9.67 8.11 10.49 8.11 12.07C8.11 13.64 9.03 14.35 10.39 14.35C11.40 14.35 12.22 13.93 12.66 13.16L12.68 14.18ZM12.64 11.56C12.64 13.03 11.66 13.75 10.51 13.75C9.37 13.75 8.82 13.15 8.82 12.04C8.82 10.86 9.42 10.26 11.12 10.26C11.51 10.26 12.19 10.32 12.64 10.39ZM18.26 5.81C17.19 5.81 16.44 6.20 16.07 6.78L16.02 5.98L15.40 5.98L15.40 14.18L16.09 14.18L16.09 8.37C16.09 7.11 16.91 6.44 18.06 6.44C19.52 6.44 19.92 7.17 19.92 8.90L19.92 14.18L20.61 14.18L20.61 8.89C20.61 7.17 21.46 6.44 22.60 6.44C24.05 6.44 24.47 7.17 24.47 8.79L24.47 14.18L25.17 14.18L25.17 8.75C25.17 6.87 24.67 5.81 22.74 5.81C21.66 5.81 20.78 6.29 20.37 7.24C20.10 6.27 19.40 5.81 18.26 5.81ZM29.48 9.56C28.36 9.34 27.73 9.09 27.73 7.91C27.73 6.99 28.25 6.41 29.53 6.41C30.83 6.41 31.29 6.96 31.33 7.99L31.99 7.99C31.99 6.61 31.25 5.81 29.53 5.81C27.83 5.81 27.08 6.69 27.08 7.94C27.08 9.55 28.01 9.93 29.27 10.16C30.51 10.40 31.42 10.65 31.42 12.00C31.42 13.17 30.74 13.75 29.47 13.75C28.03 13.75 27.51 13.09 27.51 12.01L26.85 12.01C26.85 13.62 27.73 14.35 29.47 14.35C31.26 14.35 32.09 13.44 32.09 11.96C32.09 10.16 30.80 9.83 29.48 9.56ZM34.33 8.93C34.33 7 34.79 6.44 36.26 6.44C37.72 6.44 38.18 7 38.18 8.93L38.18 11.23C38.18 13.17 37.72 13.73 36.26 13.73C34.79 13.73 34.33 13.17 34.33 11.23ZM36.26 5.81C34.44 5.81 33.63 6.52 33.63 8.90L33.63 11.26C33.63 13.64 34.44 14.35 36.26 14.35C38.07 14.35 38.88 13.64 38.88 11.26L38.88 8.90C38.88 6.52 38.07 5.81 36.26 5.81ZM40.85 5.98L40.85 14.18L41.54 14.18L41.54 8.37C41.54 7.11 42.35 6.44 43.48 6.44C44.95 6.44 45.37 7.17 45.37 8.79L45.37 14.18L46.06 14.18L46.06 8.75C46.06 6.89 45.54 5.81 43.65 5.81C42.64 5.81 41.92 6.20 41.52 6.79L41.47 5.98ZM57.29 14.18L58.10 14.18L54.91 3.51L54.05 3.51L50.88 14.18L51.63 14.18L52.58 10.86L56.32 10.86ZM54.46 4.37L56.14 10.21L52.78 10.21ZM59.22 11.24C59.22 13.24 59.98 14.35 61.66 14.35C62.62 14.35 63.36 14.03 63.77 13.36L63.84 14.18L64.46 14.18L64.46 3.37L63.77 3.37L63.77 6.78C63.41 6.19 62.66 5.81 61.75 5.81C60.34 5.81 59.22 6.59 59.22 8.88ZM59.92 8.93C59.92 7.07 60.69 6.44 61.85 6.44C62.92 6.44 63.76 6.99 63.76 8.60L63.76 11.79C63.76 13.05 62.96 13.73 61.81 13.73C60.48 13.73 59.92 12.89 59.92 11.27ZM70.83 12.05C70.80 13.17 70.35 13.73 69.05 13.73C67.59 13.73 67.12 12.99 67.12 11.31L67.12 10.18L71.55 10.18L71.55 8.81C71.55 6.75 70.80 5.81 69.02 5.81C67.28 5.81 66.43 6.68 66.43 8.92L66.43 11.30C66.43 13.52 67.24 14.35 69.06 14.35C70.73 14.35 71.47 13.59 71.48 12.05ZM69.02 6.43C70.49 6.43 70.88 7.20 70.88 8.81L70.88 9.59L67.12 9.59L67.12 8.88C67.12 7.10 67.59 6.43 69.02 6.43ZM73.50 5.98L73.50 14.18L74.19 14.18L74.19 8.67C74.19 7.29 75.04 6.57 76.19 6.57C76.37 6.57 76.51 6.58 76.64 6.59L76.64 5.88C76.54 5.87 76.37 5.85 76.23 5.85C75.21 5.85 74.51 6.41 74.19 6.97L74.12 5.98ZM78.40 8.93C78.40 7 78.86 6.44 80.33 6.44C81.79 6.44 82.25 7 82.25 8.93L82.25 11.23C82.25 13.17 81.79 13.73 80.33 13.73C78.86 13.73 78.40 13.17 78.40 11.23ZM80.33 5.81C78.51 5.81 77.70 6.52 77.70 8.90L77.70 11.26C77.70 13.64 78.51 14.35 80.33 14.35C82.14 14.35 82.95 13.64 82.95 11.26L82.95 8.90C82.95 6.52 82.14 5.81 80.33 5.81ZM84.92 5.98L84.92 14.18L85.61 14.18L85.61 8.37C85.61 7.11 86.42 6.44 87.56 6.44C89.03 6.44 89.45 7.17 89.45 8.79L89.45 14.18L90.13 14.18L90.13 8.75C90.13 6.89 89.61 5.81 87.72 5.81C86.72 5.81 85.99 6.20 85.60 6.79L85.54 5.98ZM95.10 5.81C94.04 5.81 93.28 6.20 92.92 6.78L92.86 5.98L92.25 5.98L92.25 14.18L92.93 14.18L92.93 8.37C92.93 7.11 93.76 6.44 94.91 6.44C96.36 6.44 96.77 7.17 96.77 8.90L96.77 14.18L97.45 14.18L97.45 8.89C97.45 7.17 98.31 6.44 99.44 6.44C100.90 6.44 101.32 7.17 101.32 8.79L101.32 14.18L102.02 14.18L102.02 8.75C102.02 6.87 101.51 5.81 99.58 5.81C98.50 5.81 97.62 6.29 97.22 7.24C96.95 6.27 96.25 5.81 95.10 5.81ZM109.23 14.18L109.23 5.98L108.54 5.98L108.54 11.69C108.54 13.02 107.76 13.73 106.62 13.73C105.15 13.73 104.76 12.99 104.76 11.38L104.76 5.98L104.08 5.98L104.08 11.42C104.08 13.29 104.55 14.35 106.44 14.35C107.41 14.35 108.12 14 108.56 13.33L108.61 14.18Z"></path></g><defs data-v-fde0c5aa=""><!----></defs><g data-v-fde0c5aa="" id="aa5d7336-4072-44ed-a06e-ce8bc9dc22b6" stroke="#010033" fill="none" transform="matrix(0.34157673493626434,0,0,0.34157673493626434,36.58423655967287,132.92116325318676)"><path stroke-linecap="round" stroke-linejoin="round" stroke-miterlimit="10" d="M25 69.998L22.499 90 25 69.998zM47.5 49.169c-1.557.927-3.238 1.454-4.999 1.454-2.249 0-4.371-.833-6.26-2.294v.548a6.631 6.631 0 0 1-1.953 4.717 6.655 6.655 0 0 1-2.167 1.445l-18.755 7.773A11.447 11.447 0 0 0 10 70.936V90h37.5V49.169z"></path><path stroke="#000" stroke-linecap="round" stroke-linejoin="round" stroke-miterlimit="10" d="M47.5 10.912A14.174 14.174 0 0 0 42.501 10c-7.262 0-13.239 5.446-14.104 12.478v4.059c-1.84.654-3.163 2.391-3.163 4.454 0 4.038 2.05 7.311 4.606 7.424 2.35 7.242 7.131 12.209 12.66 12.209 1.761 0 3.442-.506 4.999-1.429V10.912zM77.272 53.51l-2.653-2.652 2.653 2.652z"></path><circle stroke="#000" stroke-linecap="round" stroke-linejoin="round" stroke-miterlimit="10" cx="77.499" cy="77.498" r="5.729"></circle><path stroke="#000" stroke-linecap="round" stroke-linejoin="round" stroke-miterlimit="10" d="M81.088 86.158c1.466-.605 3.117-.002 3.891 1.338a12.522 12.522 0 0 0 2.517-2.52 3.118 3.118 0 0 1-1.335-3.893 3.114 3.114 0 0 1 3.695-1.805c.084-.582.143-1.174.143-1.781 0-.605-.059-1.195-.143-1.777a3.118 3.118 0 0 1-3.695-1.809 3.115 3.115 0 0 1 1.335-3.891 12.501 12.501 0 0 0-2.517-2.521c-.773 1.344-2.427 1.947-3.893 1.34a3.115 3.115 0 0 1-1.807-3.699A12.91 12.91 0 0 0 77.5 65c-.608 0-1.197.059-1.781.141a3.119 3.119 0 0 1-1.807 3.699 3.114 3.114 0 0 1-3.89-1.336 12.548 12.548 0 0 0-2.519 2.518 3.115 3.115 0 0 1 1.337 3.891 3.119 3.119 0 0 1-3.698 1.809A12.253 12.253 0 0 0 65 77.499c0 .607.057 1.199.142 1.781a3.119 3.119 0 0 1 3.698 1.809 3.117 3.117 0 0 1-1.337 3.893 12.59 12.59 0 0 0 2.519 2.516 3.118 3.118 0 0 1 3.89-1.338 3.122 3.122 0 0 1 1.807 3.701c.584.08 1.173.139 1.781.139.606 0 1.197-.059 1.779-.141a3.124 3.124 0 0 1 1.809-3.701zM86.59 36.65v-3.304 3.304zM78.777 10.357a1.222 1.222 0 0 0-1.728.004L58.892 28.513 55.003 35l6.482-3.889 18.159-18.159a1.222 1.222 0 0 0 0-1.727l-.867-.868zM75.32 12.086l2.595 2.595-2.595-2.595zM73.591 13.816l2.595 2.595-2.595-2.595zM58.892 28.516l2.594 2.595-2.594-2.595z"></path><path stroke="#000" stroke-linecap="round" stroke-linejoin="round" stroke-miterlimit="10" d="M83.902 56.6L71.527 44.229a3.752 3.752 0 0 0-5.304 0L47.5 62.953v15.578l7.234 7.238a3.745 3.745 0 0 0 5.303 0l6.528-6.527a3.05 3.05 0 0 0-1.423.037A12.286 12.286 0 0 1 65 77.498c0-.605.057-1.195.142-1.777a3.119 3.119 0 0 0 3.698-1.809 3.115 3.115 0 0 0-1.337-3.891 12.548 12.548 0 0 1 2.519-2.518 3.114 3.114 0 0 0 3.89 1.336 3.119 3.119 0 0 0 1.807-3.699A12.89 12.89 0 0 1 77.5 65c.604 0 1.195.059 1.779.141-.13.479-.13.965-.038 1.426l4.659-4.66h.002a3.755 3.755 0 0 0 0-5.307z"></path><path stroke="#000" stroke-linecap="round" stroke-linejoin="round" stroke-miterlimit="10" d="M65.34 45.115L47.5 62.953v6.748l14.304 14.305 4.765-4.764a3.062 3.062 0 0 0-1.426.037 12.286 12.286 0 0 1-.142-1.781c0-.605.057-1.195.142-1.777a3.119 3.119 0 0 0 3.698-1.809 3.115 3.115 0 0 0-1.337-3.891 12.548 12.548 0 0 1 2.519-2.518 3.114 3.114 0 0 0 3.89 1.336 3.119 3.119 0 0 0 1.807-3.699c.583-.081 1.172-.14 1.78-.14.604 0 1.195.059 1.779.141a3.12 3.12 0 0 0-.038 1.43l3.777-3.779L65.34 45.115z"></path><path stroke="#000" stroke-linecap="round" stroke-linejoin="round" stroke-miterlimit="10" d="M86.692 16.817H75.779L61.485 31.111 55.003 35l3.889-6.486 11.697-11.696H47.5v36.367h9.771l8.953-8.955a3.752 3.752 0 0 1 5.304 0l8.954 8.955h6.211a3.31 3.31 0 0 0 3.308-3.308V20.125a3.31 3.31 0 0 0-3.309-3.308z"></path><path stroke="#000" stroke-linecap="round" stroke-linejoin="round" stroke-miterlimit="10" d="M73.505 19.09l-12.02 12.021L55.003 35l3.889-6.486 9.425-9.423H47.5v31.82h12.044l6.68-6.681a3.752 3.752 0 0 1 5.304 0l6.681 6.681h4.973V19.09h-9.677z"></path></g><!----></svg>